<?xml version="1.0" standalone="yes"?>
<svg xmlns="http://www.w3.org/2000/svg" width="2200" height="358">
<path style="fill:#f9f7ed; stroke:none;" d="M0 0L0 358L428 358L554 358L591 358C596.215 358 603.055 359.139 608 357.258C611.464 355.94 614.048 352.918 617 350.784C621.997 347.172 627.362 343.695 633 341.182C640.026 338.051 647.858 337.432 655 334.547C670.292 328.371 684.074 319.767 698 311.05C704.623 306.904 711.813 303.261 718 298.471C732.661 287.122 742.957 270.001 759 260.348C765.458 256.462 775.414 248.985 783 248.318C790.039 247.699 798.325 255.422 805 251.382C810.231 248.216 814.129 242.466 818.17 238C823.194 232.447 828.706 227.294 834 222C837.058 218.942 840.763 213.651 845 212.252C848.837 210.986 853.157 215.089 856 217.152C863.744 222.773 870.89 230.137 879 235.107C886.131 239.477 890.972 233.136 898 233.289C901.982 233.376 905.908 236.124 909.911 235.508C915.737 234.612 921.771 224.976 926 221.171C934.858 213.198 944.475 205.782 954 198.627C957.792 195.778 961.706 191.84 966 189.808C973.711 186.16 981.223 198.499 990 195.254C997.945 192.316 1005.12 181.878 1011 176C1025.85 161.155 1041.17 146.832 1056 132C1061.57 126.432 1066.99 120.678 1073 115.58C1074.95 113.925 1077.29 111.293 1080 111.035C1083.36 110.716 1086.65 114.312 1089 116.25C1095.71 121.784 1102.55 127.271 1108.71 133.424C1119.29 143.98 1126.81 157.589 1136.44 169C1144.13 178.119 1153.73 185.191 1163 192.6C1169.05 197.439 1175.2 203.286 1182 207.03C1190.59 211.757 1201.52 204.248 1209 200C1213.18 197.625 1218.2 193.923 1223 196.758C1230.01 200.904 1235.95 209.917 1241.28 216C1252.59 228.885 1264.24 241.461 1275.91 254C1282.15 260.706 1290.4 271.551 1300 273.637C1303.99 274.503 1307.97 270.675 1311 268.587C1317.49 264.108 1324.74 260.638 1332 257.579C1334.91 256.354 1337.86 254.832 1341 256.222C1346.72 258.752 1351.26 265.437 1355.29 270C1362.57 278.254 1370.61 287.592 1379 294.674C1386.27 300.8 1394.95 305.436 1403 310.424C1418.17 319.826 1433.5 329 1449 337.85C1460.14 344.21 1472.63 353.847 1485 357.363C1491.98 359.347 1500.78 358 1508 358L1554 358L1706 358L2200 358L2200 0L0 0z"/>
<path style="fill:#030303; stroke:none;" d="M608 357C614.436 359.701 624.049 358 631 358L683 358L863 358L1485 358C1476.12 350.639 1464.03 345.875 1454 340.15C1429.85 326.366 1404.3 312.915 1382 296.24C1372.31 288.997 1363.29 278.08 1355.29 269C1351.35 264.538 1346.84 257.815 1341 255.758C1337.52 254.531 1334.16 256.242 1331 257.579C1324.15 260.477 1317.16 263.693 1311 267.887C1307.59 270.21 1303.21 274.842 1298.83 272.758C1289.47 268.307 1282.79 260.388 1275.91 253C1264.53 240.782 1253.29 228.456 1242.17 216C1236.72 209.9 1230.44 199.821 1223 196.183C1218.51 193.987 1213.93 196.689 1210 198.861C1202.81 202.836 1191.3 211.559 1183 207.029C1176.2 203.316 1170.04 197.431 1164 192.6C1154.36 184.891 1144.45 177.489 1136.44 168C1127.31 157.177 1120.05 144.637 1110.39 134.285C1104.2 127.66 1096.98 122.002 1090 116.25C1087.33 114.051 1083.78 110.287 1080 110.546C1073.32 111.004 1065.4 121.602 1061 126C1046.49 140.511 1031.52 154.484 1017 169L998 187.999C995.205 190.779 992.087 194.69 988 195.473C979.687 197.065 973.012 185.369 965 189.718C960.385 192.224 956.194 196.215 952 199.374C942.817 206.291 933.547 213.478 925 221.171C920.698 225.042 916.139 232.496 910.83 234.799C906.936 236.488 902.022 233.229 898 233.137C893.255 233.027 889.591 236.555 885 236.654C878.958 236.783 873.373 229.659 869 226.211C863.815 222.122 858.541 217.958 853 214.36C850.679 212.852 847.918 210.947 845 211.711C840.673 212.844 837.026 217.974 834 221C827.761 227.238 821.364 233.337 815.576 240C812.247 243.831 807.881 249.933 803 251.788C795.394 254.678 787.284 245.759 779 249.074C767.668 253.609 755.901 260.801 747 269.09C736.363 278.994 727.034 291.684 715 299.907C700.63 309.725 684.809 320.427 669 327.691C662.774 330.552 656.535 333.892 650 335.971C643.286 338.108 636.39 339.002 630 342.11C621.92 346.039 615.29 351.926 608 357z"/>
<path style="fill:#f9f7ed; stroke:none;" d="M1078 131C1052.77 154.238 1024.5 174.86 1001.09 200C982.922 219.511 970.102 243.347 952 263C956.387 244.036 965.293 225.578 967 206C959.539 209.48 953.768 217.232 948 223C934.426 236.574 922.192 252.041 908 264.896C901.219 271.038 892.581 275.56 885 280.67C878.015 285.378 871.381 291.026 864 295.096C858.489 298.136 852.18 299.832 847 303.484C842.331 306.775 838.282 310.959 834 314.715C827.688 320.252 818.973 326.557 815 334C826.439 329.237 837.356 323.405 849 319.05C857.319 315.939 867.364 314.117 875 309.61C880.741 306.221 885.799 301.161 891 297C899.41 290.272 908.074 284.022 917 278C912.188 295.594 901.105 311.956 898 330C905.699 326.011 912.274 319.077 919 313.611C934.879 300.708 951.953 285.972 971 278C973.254 284.193 977.164 289.628 979 296C985.52 293.529 991.199 288.827 997 285.003C1005.53 279.382 1014.56 273.93 1024 270C1019.25 280.016 1014.72 290.082 1009.75 300C1006.78 305.941 1002.85 311.597 1001 318C1017.34 308.688 1030.69 293.789 1043.17 280C1054.78 267.167 1066.81 254.287 1079 242L1079 287C1087 281.362 1093.04 272.878 1100 266.004C1102.69 263.341 1106.62 258.348 1110.58 257.637C1112.86 257.226 1115.17 259.112 1117 260.201L1129 267.201C1143.82 276.027 1159.05 285.361 1175 292C1171.77 285.035 1165.38 279.378 1160 274L1136 250C1131.58 245.58 1126.11 237.627 1120 235.643C1114.07 233.716 1102.99 236.57 1097 238C1102.68 220.093 1097.64 204.633 1094 187C1088.46 188.441 1084.24 192.566 1080 196.286C1070.11 204.96 1062.24 215.681 1053 225C1056.02 211.826 1060 198.02 1066.26 186C1069.97 178.898 1076.3 173.381 1079.47 166C1082.26 159.475 1080.33 152.745 1080.04 146C1079.81 140.841 1080.5 135.697 1078 131z"/>
<path style="fill:#030303; stroke:none;" d="M1038 189C1026.07 197.777 1021.23 209.04 1014.75 222C1009.25 233.008 1003.2 243.865 998 255C1007.32 250.358 1019.92 241.058 1025.27 231.985C1029.3 225.152 1031.25 216.521 1033.66 209C1035.45 203.4 1039.74 194.747 1038 189z"/>
<path style="fill:#f9f7ed; stroke:none;" d="M1198 224C1200.49 232.453 1206.21 240.38 1210.58 248C1216.64 258.565 1222.07 269.444 1226 281C1218.01 275.612 1209.8 270.509 1202 264.848C1196.03 260.515 1190.11 255.265 1183 253C1186.99 259.407 1192.08 264.989 1196.63 271C1202.12 278.271 1207.45 286.543 1214.09 292.816C1220.24 298.632 1228.22 302.812 1235 307.895C1241.19 312.535 1246.96 318.775 1254 322C1251.1 311.397 1245.97 301.245 1242 291C1249.03 297.083 1256.74 302.39 1264 308.2C1269.09 312.27 1274.07 317.282 1280 320C1276.26 312.485 1270.53 305.867 1265.72 299C1261.14 292.463 1257.01 285.024 1251.67 279.09C1247.11 274.015 1239.91 271.449 1235.99 265.826C1232.7 261.1 1231.47 254.411 1229.67 249C1225.82 237.466 1222.14 225.561 1216 215C1209.71 216.85 1203.66 220.698 1198 224M844 231C834.323 242.884 822.132 253.242 813.599 266C810.537 270.578 808.881 275.972 806.719 281C803.352 288.832 799.249 296.777 797 305C804.229 299.908 810.436 293.099 817 287.17C821.252 283.329 826.704 279.687 829.722 274.715C833.825 267.956 835.824 258.499 838.333 251C840.268 245.219 845.277 237.081 844 231z"/>
<path style="fill:#030303; stroke:none;" d="M951 263L952 264L951 263z"/>
<path style="fill:#f9f7ed; stroke:none;" d="M779 265C772.628 269.862 765.25 273.363 759 278.379C750.414 285.269 743.2 294.841 735.83 303C729.075 310.48 721.704 317.658 716 326C722.45 323.638 728.206 319.333 734 315.681C742.321 310.437 750.844 305.498 759 300C759.918 304.94 760.605 309.993 761 315C764.376 310.469 764.9 304.354 766.427 299C768.399 292.092 771.255 285.523 774.231 279C776.087 274.932 779.744 269.469 779 265M1312 287C1316.27 292.581 1322.53 296.444 1328 300.801C1334.42 305.917 1340.7 312.233 1348 316C1344.16 301.936 1336.56 289.365 1331 276C1324.19 278.492 1317.99 282.962 1312 287z"/>
</svg>
